<?xml version="1.0" encoding="utf-8"?>
<!-- Generator: Adobe Illustrator 23.0.4, SVG Export Plug-In . SVG Version: 6.00 Build 0)  -->
<svg version="1.1" id="Layer_1" xmlns="http://www.w3.org/2000/svg" xmlns:xlink="http://www.w3.org/1999/xlink" x="0px" y="0px"
	 viewBox="0 0 450 70" style="enable-background:new 0 0 450 70;" xml:space="preserve">
<style type="text/css">
	.st0{fill:#FFFFFF;}
</style>
<g>
	<g>
		<g>
			<path class="st0" d="M104,44.1V28.7h-5.5v-2.8h14.2v2.8h-5.5v15.3H104z"/>
		</g>
		<g>
			<path class="st0" d="M116.2,44.1V25.9h12.4v2.8h-9.2v4.7h9.1v2.8h-9.1v5.1h9.2v2.8H116.2z"/>
		</g>
		<g>
			<path class="st0" d="M132.5,44.1V25.9h3.2v15.3h8v2.8H132.5z"/>
		</g>
		<g>
			<path class="st0" d="M146.4,44.1V25.9h12.4v2.8h-9.2v4.7h9.1v2.8h-9.1v5.1h9.2v2.8H146.4z"/>
		</g>
		<g>
			<path class="st0" d="M162.1,35c0-5.6,4.2-9.4,9.5-9.4c3.6,0,5.9,1.9,7.3,4.1l-2.7,1.4c-0.9-1.5-2.6-2.6-4.6-2.6
				c-3.6,0-6.3,2.7-6.3,6.6c0,3.8,2.7,6.6,6.3,6.6c1.9,0,3.7-1.1,4.6-2.6l2.7,1.4c-1.4,2.2-3.6,4.1-7.3,4.1
				C166.3,44.4,162.1,40.6,162.1,35z"/>
		</g>
		<g>
			<path class="st0" d="M180.6,35c0-5.4,3.8-9.4,9.3-9.4c5.4,0,9.3,4,9.3,9.4s-3.9,9.4-9.3,9.4C184.4,44.4,180.6,40.4,180.6,35z
				 M195.8,35c0-3.8-2.4-6.6-6-6.6c-3.7,0-6,2.8-6,6.6c0,3.7,2.3,6.6,6,6.6C193.5,41.6,195.8,38.7,195.8,35z"/>
		</g>
		<g>
			<path class="st0" d="M217.7,44.1v-14l-5.5,14h-1.4l-5.6-14v14H202V25.9h4.5l5,12.5l4.9-12.5h4.5v18.1H217.7z"/>
		</g>
		<g>
			<path class="st0" d="M237.5,44.1V25.9h3.2v18.1H237.5z"/>
		</g>
		<g>
			<path class="st0" d="M259,44.1l-9.5-13v13h-3.2V25.9h3.3l9.3,12.6V25.9h3.2v18.1H259z"/>
		</g>
		<g>
			<path class="st0" d="M267.8,44.1V25.9h12.4v2.8H271v4.7h9.1v2.8H271v7.9H267.8z"/>
		</g>
		<g>
			<path class="st0" d="M293.4,44.1l-4-6.8h-3.2v6.8H283V25.9h8c3.6,0,6,2.3,6,5.7c0,3.2-2.1,5-4.3,5.3l4.5,7.1H293.4z M293.7,31.6
				c0-1.7-1.3-2.9-3.1-2.9h-4.4v5.8h4.4C292.4,34.5,293.7,33.3,293.7,31.6z"/>
		</g>
		<g>
			<path class="st0" d="M313.7,44.1l-1.3-3.5h-8.3l-1.3,3.5h-3.6l7.1-18.1h4l7.1,18.1H313.7z M308.2,29.1l-3.3,8.7h6.5L308.2,29.1z"
				/>
		</g>
		<g>
			<path class="st0" d="M329.4,44.1V25.9h6.8c3.5,0,5.5,2.4,5.5,5.3c0,2.9-2,5.3-5.5,5.3h-5.2v7.5H329.4z M340,31.2
				c0-2.3-1.6-3.9-4-3.9h-5.1v7.8h5.1C338.5,35.1,340,33.5,340,31.2z"/>
		</g>
		<g>
			<path class="st0" d="M355.4,44.1l-5.1-7.5h-4v7.5h-1.6V25.9h6.8c3.1,0,5.5,2,5.5,5.3c0,3.3-2.3,5.1-5,5.2l5.2,7.6H355.4z
				 M355.4,31.2c0-2.3-1.6-3.9-4-3.9h-5.1v7.8h5.1C353.8,35.1,355.4,33.5,355.4,31.2z"/>
		</g>
		<g>
			<path class="st0" d="M361.1,35c0-5.3,3.5-9.4,8.8-9.4c5.3,0,8.8,4.1,8.8,9.4c0,5.3-3.5,9.4-8.8,9.4
				C364.6,44.4,361.1,40.3,361.1,35z M377.1,35c0-4.6-2.8-8-7.2-8c-4.4,0-7.2,3.4-7.2,8c0,4.6,2.8,8,7.2,8
				C374.3,43,377.1,39.6,377.1,35z"/>
		</g>
		<g>
			<path class="st0" d="M380,42.2l1-1.2c0.8,1.1,1.9,2,3.6,2c2.5,0,4-1.7,4-4.2V25.9h1.6v12.9c0,3.8-2.5,5.6-5.5,5.6
				C382.7,44.4,381.2,43.7,380,42.2z"/>
		</g>
		<g>
			<path class="st0" d="M395.6,44.1V25.9h11.5v1.4h-10V34h9.8v1.4h-9.8v7.2h10v1.4H395.6z"/>
		</g>
		<g>
			<path class="st0" d="M410.1,35c0-5.6,4.1-9.4,9.2-9.4c2.9,0,5.1,1.3,6.6,3.2l-1.3,0.8c-1.1-1.6-3.1-2.6-5.3-2.6
				c-4.2,0-7.6,3.2-7.6,8c0,4.7,3.3,8,7.6,8c2.2,0,4.2-1.1,5.3-2.6l1.3,0.8c-1.6,2-3.8,3.2-6.6,3.2C414.1,44.4,410.1,40.6,410.1,35z
				"/>
		</g>
		<g>
			<path class="st0" d="M433.5,44.1V27.3h-5.9v-1.4H441v1.4h-5.9v16.7H433.5z"/>
		</g>
	</g>
	<g>
		<polygon class="st0" points="12.7,32.9 36.9,8.7 61.1,32.9 64.7,32.9 36.9,5 9,32.9 		"/>
		<polygon class="st0" points="61.1,37.1 36.9,61.3 12.7,37.1 9,37.1 36.9,65 64.7,37.1 		"/>
		<polygon class="st0" points="34.2,32.9 58.4,8.7 82.6,32.9 86.3,32.9 58.4,5 30.5,32.9 		"/>
		<polygon class="st0" points="82.6,37.1 58.4,61.3 34.2,37.1 30.5,37.1 58.4,65 86.3,37.1 		"/>
	</g>
</g>
</svg>
